<svg width="86" height="75" viewBox="0 0 86 75" fill="none" xmlns="http://www.w3.org/2000/svg">
<path d="M23.3125 14.0625V2.8125C23.3125 1.25859 24.5711 0 26.125 0C32.3378 0 37.375 5.03719 37.375 11.25V14.0625H23.3125Z" fill="#0473CE"/>
<path d="M3.625 39.375H9.25V25.3125H3.625C2.07109 25.3125 0.8125 26.5711 0.8125 28.125V36.5625C0.8125 38.1164 2.07109 39.375 3.625 39.375Z" fill="#056FC6"/>
<path d="M7.84375 64.6875C5.51781 64.6875 3.625 66.2639 3.625 68.2031C3.625 70.1423 5.51781 71.7188 7.84375 71.7188H52.8438V64.6875H7.84375Z" fill="white"/>
<path d="M83.7812 61.875H52.8438C53.62 61.875 54.25 62.505 54.25 63.2812C54.25 64.0575 53.62 64.6875 52.8438 64.6875H83.7812C84.5575 64.6875 85.1875 64.0575 85.1875 63.2812C85.1875 62.505 84.5575 61.875 83.7812 61.875Z" fill="#0473CE"/>
<path d="M83.7812 71.7188H52.8438C53.62 71.7188 54.25 72.3488 54.25 73.125C54.25 73.9012 53.62 74.5312 52.8438 74.5312H83.7812C84.5575 74.5312 85.1875 73.9012 85.1875 73.125C85.1875 72.3488 84.5575 71.7188 83.7812 71.7188Z" fill="#0473CE"/>
<path d="M52.8438 74.5312H7.84375C3.96672 74.5312 0.8125 71.692 0.8125 68.2031C0.8125 64.7142 3.96672 61.875 7.84375 61.875H52.8438C53.62 61.875 54.25 62.505 54.25 63.2812C54.25 64.0575 53.62 64.6875 52.8438 64.6875H7.84375C5.51781 64.6875 3.625 66.2639 3.625 68.2031C3.625 70.1423 5.51781 71.7188 7.84375 71.7188H52.8438C53.62 71.7188 54.25 72.3488 54.25 73.125C54.25 73.9012 53.62 74.5312 52.8438 74.5312Z" fill="#0473CE"/>
<path d="M52.8438 64.6875H83.7812V71.7188H52.8438V64.6875Z" fill="#D6D8DB"/>
<path d="M64.0938 11.25H27.5312C15.8819 11.25 6.4375 20.6944 6.4375 32.3438C6.4375 43.9931 15.8819 53.4375 27.5312 53.4375H64.0938C75.7431 53.4375 85.1875 43.9931 85.1875 32.3438C85.1875 20.6944 75.7431 11.25 64.0938 11.25Z" fill="#0473CE"/>
<path d="M85.1875 32.3438C85.1875 43.9875 75.7375 53.4375 64.0938 53.4375H27.5312C21.7094 53.4375 16.4359 51.075 12.625 47.25C11.9219 46.5469 11.2609 45.8016 10.6562 45H48.625C64.1641 45 76.75 32.4141 76.75 16.875V15.4688C77.5516 16.0734 78.2969 16.7344 79 17.4375C82.825 21.2484 85.1875 26.5219 85.1875 32.3438Z" fill="#056FC6"/>
<path d="M35.9688 22.5H64.0938C65.6477 22.5 66.9062 21.2414 66.9062 19.6875C66.9062 18.1336 65.6477 16.875 64.0938 16.875H35.9688C34.4148 16.875 33.1562 18.1336 33.1562 19.6875C33.1562 21.2414 34.4148 22.5 35.9688 22.5Z" fill="#55525B"/>
<path d="M23.3125 28.125C24.8658 28.125 26.125 26.8658 26.125 25.3125C26.125 23.7592 24.8658 22.5 23.3125 22.5C21.7592 22.5 20.5 23.7592 20.5 25.3125C20.5 26.8658 21.7592 28.125 23.3125 28.125Z" fill="#55525B"/>
<path d="M38.7812 61.875H30.3438C28.7898 61.875 27.5312 60.6164 27.5312 59.0625V53.4375H41.5938V59.0625C41.5938 60.6164 40.3352 61.875 38.7812 61.875Z" fill="#056FC6"/>
<path d="M61.2812 61.875H52.8438C51.2898 61.875 50.0312 60.6164 50.0312 59.0625V53.4375H64.0938V59.0625C64.0938 60.6164 62.8352 61.875 61.2812 61.875Z" fill="#056FC6"/>
<path d="M51.4375 0H48.625C41.6345 0 35.9688 5.66578 35.9688 12.6562C35.9688 19.6453 41.6345 25.3125 48.625 25.3125H51.4375C58.428 25.3125 64.0938 19.6467 64.0938 12.6562C64.0938 5.66578 58.428 0 51.4375 0Z" fill="#D8D4D0"/>
<path d="M48.625 25.3125C55.6149 25.3125 61.2812 19.6461 61.2812 12.6562C61.2812 5.6664 55.6149 0 48.625 0C41.6351 0 35.9688 5.6664 35.9688 12.6562C35.9688 19.6461 41.6351 25.3125 48.625 25.3125Z" fill="#F9F9F9"/>
<path d="M48.625 11.25C47.462 11.25 46.5156 10.3036 46.5156 9.14062C46.5156 7.97766 47.462 7.03125 48.625 7.03125C49.788 7.03125 50.7344 7.97766 50.7344 9.14062C50.7344 9.91828 51.3644 10.5469 52.1406 10.5469C52.9169 10.5469 53.5469 9.91828 53.5469 9.14062C53.5469 6.91875 52.0577 5.05828 50.0312 4.44797V3.51562C50.0312 2.73797 49.4012 2.10938 48.625 2.10938C47.8488 2.10938 47.2188 2.73797 47.2188 3.51562V4.44797C45.1923 5.05828 43.7031 6.91875 43.7031 9.14062C43.7031 11.8547 45.9109 14.0625 48.625 14.0625C49.788 14.0625 50.7344 15.0089 50.7344 16.1719C50.7344 17.3348 49.788 18.2812 48.625 18.2812C47.462 18.2812 46.5156 17.3348 46.5156 16.1719C46.5156 15.3942 45.8856 14.7656 45.1094 14.7656C44.3331 14.7656 43.7031 15.3942 43.7031 16.1719C43.7031 18.3938 45.1923 20.2542 47.2188 20.8645V21.7969C47.2188 22.5745 47.8488 23.2031 48.625 23.2031C49.4012 23.2031 50.0312 22.5745 50.0312 21.7969V20.8645C52.0577 20.2556 53.5469 18.3938 53.5469 16.1719C53.5469 13.4578 51.3391 11.25 48.625 11.25Z" fill="black"/>
<path d="M39.4844 22.5H60.5781V28.125H39.4844V22.5Z" fill="white"/>
</svg>
