<svg width="95" height="95" viewBox="0 0 95 95" fill="none" xmlns="http://www.w3.org/2000/svg">
<g opacity="0.9">
<path d="M37.6724 75.3447C58.4782 75.3447 75.3447 58.4782 75.3447 37.6724C75.3447 16.8665 58.4782 0 37.6724 0C16.8665 0 0 16.8665 0 37.6724C0 58.4782 16.8665 75.3447 37.6724 75.3447Z" fill="#262525"/>
<path d="M37.6722 68.7928C54.8596 68.7928 68.7928 54.8596 68.7928 37.6722C68.7928 20.4847 54.8596 6.55151 37.6722 6.55151C20.4847 6.55151 6.55151 20.4847 6.55151 37.6722C6.55151 54.8596 20.4847 68.7928 37.6722 68.7928Z" fill="white"/>
<path d="M11.4658 37.6726C11.4658 38.107 11.2932 38.5236 10.9861 38.8308C10.6789 39.138 10.2623 39.3105 9.82786 39.3105H6.595C6.56633 38.768 6.552 38.222 6.552 37.6726C6.552 37.1232 6.56633 36.5772 6.595 36.0347H9.82786C10.2623 36.0347 10.6789 36.2072 10.9861 36.5144C11.2932 36.8216 11.4658 37.2382 11.4658 37.6726Z" fill="#262525"/>
<path d="M19.1414 58.5197L16.8565 60.8067C16.0435 60.0756 15.2699 59.302 14.5388 58.489L16.8258 56.2041C16.9764 56.0456 17.1572 55.9189 17.3575 55.8313C17.5578 55.7438 17.7737 55.6973 17.9923 55.6945C18.2109 55.6917 18.4278 55.7327 18.6303 55.815C18.8329 55.8974 19.0168 56.0195 19.1714 56.1741C19.326 56.3287 19.4481 56.5126 19.5305 56.7152C19.6128 56.9177 19.6538 57.1346 19.651 57.3532C19.6482 57.5718 19.6017 57.7877 19.5142 57.988C19.4266 58.1883 19.2999 58.3691 19.1414 58.5197V58.5197Z" fill="#262525"/>
<path d="M19.1414 19.1416C18.8343 19.4486 18.4178 19.621 17.9836 19.621C17.5494 19.621 17.1329 19.4486 16.8258 19.1416L14.5388 16.8567C15.2699 16.0438 16.0435 15.2701 16.8565 14.5391L19.1414 16.826C19.4483 17.1332 19.6208 17.5496 19.6208 17.9838C19.6208 18.4181 19.4483 18.8345 19.1414 19.1416Z" fill="#262525"/>
<path d="M39.3105 6.595V9.82786C39.3105 10.2623 39.138 10.6789 38.8308 10.9861C38.5236 11.2932 38.107 11.4658 37.6726 11.4658C37.2382 11.4658 36.8216 11.2932 36.5144 10.9861C36.2072 10.6789 36.0347 10.2623 36.0347 9.82786V6.595C36.5772 6.56633 37.1232 6.552 37.6726 6.552C38.222 6.552 38.768 6.56633 39.3105 6.595Z" fill="#262525"/>
<path d="M39.3105 65.5171V68.7499C38.768 68.7786 38.222 68.7929 37.6726 68.7929C37.1232 68.7929 36.5772 68.7786 36.0347 68.7499V65.5171C36.0347 65.0827 36.2072 64.6661 36.5144 64.3589C36.8216 64.0517 37.2382 63.8792 37.6726 63.8792C38.107 63.8792 38.5236 64.0517 38.8308 64.3589C39.138 64.6661 39.3105 65.0827 39.3105 65.5171Z" fill="#262525"/>
<path d="M60.8067 16.8567L58.5197 19.1416C58.3691 19.3001 58.1883 19.4269 57.988 19.5144C57.7877 19.6019 57.5718 19.6485 57.3532 19.6513C57.1346 19.6541 56.9177 19.6131 56.7152 19.5307C56.5126 19.4483 56.3287 19.3263 56.1741 19.1717C56.0195 19.0171 55.8974 18.8331 55.815 18.6306C55.7327 18.4281 55.6917 18.2111 55.6945 17.9925C55.6973 17.7739 55.7438 17.5581 55.8313 17.3577C55.9189 17.1574 56.0456 16.9766 56.2041 16.826L58.489 14.5391C59.302 15.2701 60.0756 16.0438 60.8067 16.8567V16.8567Z" fill="#262525"/>
<path d="M63.8792 26.207V36.0346L70.4309 40.9484V34.3967H70.6852C71.4865 34.3967 72.2551 34.0783 72.8217 33.5117C73.3884 32.945 73.7067 32.1765 73.7067 31.3751V26.207H63.8792Z" fill="#FFEEE3"/>
<path d="M73.7067 52.7411L70.4308 50.7755L68.7929 60.6031H54.0515L57.3274 49.1376V36.0342H63.8791L76.9825 45.2066L73.7067 52.7411Z" fill="#0473CE"/>
<path d="M76.9829 45.2071L80.2587 47.5002L88.4484 40.9485V37.6726H93.3622L95.0001 42.5864L85.5439 53.3935C84.9129 54.1147 84.1349 54.6927 83.2623 55.0888C82.3896 55.4848 81.4423 55.6898 80.484 55.6898C79.2651 55.6899 78.0691 55.3587 77.0238 54.7316L73.707 52.7416L76.9829 45.2071Z" fill="#FFEEE3"/>
<path d="M80.2585 88.4483L76.9827 76.9828L65.1394 70.2153L67.4446 61.5863L68.793 60.6035L82.4978 68.8263C83.3265 69.3236 84.0262 70.0093 84.54 70.8279C85.0538 71.6465 85.3671 72.5747 85.4546 73.5372L86.8102 88.4483H80.2585Z" fill="#331D06"/>
<path d="M86.8103 88.4482L91.5689 90.0862L91.724 95H80.2585V88.4482H86.8103Z" fill="#0473CE"/>
<path d="M54.0514 60.6035L52.4135 73.7069H37.6721L36.0342 80.2587L54.3677 81.6689C56.2852 81.8163 58.1968 81.3167 59.797 80.2501L59.8937 80.1856C61.4186 79.169 62.5789 77.6917 63.2052 75.9693L68.7928 60.6035H54.0514Z" fill="#422608"/>
<path d="M37.6723 73.7067L31.6717 72.3286L27.8447 81.8964L32.7585 83.5343L36.0344 80.2584L37.6723 73.7067Z" fill="#0473CE"/>
<path d="M52.4138 49.1376L57.3276 45.8618V36.0342H56.0871C54.7839 36.0342 53.5341 36.5519 52.6126 37.4733L47.5 42.5859L52.4138 49.1376Z" fill="#0473CE"/>
<path d="M78.6205 24.5685H75.2855C75.0778 23.1345 74.3349 21.8324 73.2062 20.9239C72.0774 20.0155 70.6465 19.5682 69.2014 19.672C67.7562 19.7757 66.4039 20.4229 65.4165 21.4832C64.4291 22.5436 63.8798 23.9385 63.8792 25.3874V27.8443H78.6205C79.0549 27.8443 79.4715 27.6718 79.7787 27.3646C80.0859 27.0574 80.2584 26.6408 80.2584 26.2064C80.2584 25.772 80.0859 25.3554 79.7787 25.0482C79.4715 24.741 79.0549 24.5685 78.6205 24.5685Z" fill="#0473CE"/>
<path d="M44.2244 60.6035H62.2416V72.4785C62.2416 72.8043 62.1122 73.1168 61.8818 73.3471C61.6514 73.5775 61.3389 73.7069 61.0131 73.7069H45.4528C45.127 73.7069 44.8145 73.5775 44.5842 73.3471C44.3538 73.1168 44.2244 72.8043 44.2244 72.4785V60.6035Z" fill="#0473CE"/>
<path d="M44.2244 60.6035H62.2416V62.2414H44.2244V60.6035Z" fill="#055EA7"/>
<path d="M43.8144 54.0515H62.6506C62.9764 54.0515 63.2888 54.1809 63.5192 54.4113C63.7496 54.6417 63.879 54.9542 63.879 55.28V60.6032H42.5859V55.28C42.5859 54.9542 42.7154 54.6417 42.9457 54.4113C43.1761 54.1809 43.4886 54.0515 43.8144 54.0515V54.0515Z" fill="#0473CE"/>
<path d="M27.845 49.138C27.5211 49.138 27.2044 49.0419 26.935 48.8619C26.6656 48.682 26.4557 48.4262 26.3317 48.1269C26.2077 47.8276 26.1753 47.4982 26.2385 47.1805C26.3017 46.8627 26.4577 46.5709 26.6868 46.3418L36.0347 36.9942V16.3794C36.0347 15.945 36.2072 15.5284 36.5144 15.2212C36.8216 14.914 37.2382 14.7415 37.6726 14.7415C38.107 14.7415 38.5236 14.914 38.8308 15.2212C39.1379 15.5284 39.3105 15.945 39.3105 16.3794V37.6725C39.3105 37.8876 39.2682 38.1006 39.1859 38.2993C39.1035 38.498 38.9829 38.6786 38.8308 38.8307L29.0032 48.6583C28.8513 48.8106 28.6708 48.9314 28.472 49.0137C28.2732 49.096 28.0602 49.1382 27.845 49.138V49.138Z" fill="#262525"/>
<path d="M37.6723 40.9482C39.4815 40.9482 40.9482 39.4815 40.9482 37.6723C40.9482 35.8631 39.4815 34.3965 37.6723 34.3965C35.8631 34.3965 34.3965 35.8631 34.3965 37.6723C34.3965 39.4815 35.8631 40.9482 37.6723 40.9482Z" fill="#262525"/>
<path d="M47.5002 42.5859L45.6999 44.3862C45.232 44.854 44.8609 45.4094 44.6077 46.0207C44.3545 46.6319 44.2243 47.2871 44.2244 47.9487C44.2246 48.7306 44.4068 49.5017 44.7567 50.2009L50.7761 62.2411L54.0519 63.879L57.3278 60.6032L54.0519 57.3273L52.414 49.1377L47.5002 42.5859Z" fill="#FFEEE3"/>
</g>
</svg>
