<svg width="90" height="86" viewBox="0 0 90 86" fill="none" xmlns="http://www.w3.org/2000/svg">
<path d="M16.0996 45.0943L17.7805 32.0853C17.7805 27.4182 23.6596 23.4337 27.852 27.6261L30.7101 30.4842L16.0996 45.0943Z" fill="#FFEEE3"/>
<path d="M30.7097 30.4838L28.7926 32.4028H28.7907L25.9331 29.5451C23.6526 27.2647 20.8744 27.4028 18.8135 28.756C20.6852 25.9134 24.7351 24.5092 27.8521 27.6261L30.7097 30.4838Z" fill="#F8E7DC"/>
<path d="M43.6618 14.8551L46.5202 17.7136L40.8033 23.4304L37.9449 20.572C36.3671 18.9942 36.3671 16.4356 37.9462 14.8564C38.7358 14.0669 39.7702 13.6721 40.8033 13.6721C41.8393 13.6721 42.8722 14.0656 43.6618 14.8551V14.8551Z" fill="#FFEEE3"/>
<path d="M45.6019 16.7956L46.52 17.7136L40.8031 23.4305L39.8851 22.5124C38.3073 20.9346 38.3073 18.376 39.8864 16.7969C40.6759 16.0073 41.7104 15.6125 42.7435 15.6125C43.7795 15.6125 44.8126 16.006 45.6019 16.7956Z" fill="#F8E7DC"/>
<path d="M37.9449 20.572L40.8033 23.4305L35.0877 29.146L32.2293 26.2876C30.6515 24.7098 30.6515 22.1511 32.2306 20.572C33.0189 19.7838 34.0533 19.389 35.0877 19.3877C36.1222 19.389 37.1553 19.7825 37.9449 20.572V20.572Z" fill="#FFEEE3"/>
<path d="M39.8867 22.5138L40.8034 23.4305L35.0879 29.146L34.1711 28.2293C32.592 26.6502 32.592 24.0916 34.1711 22.5125C34.9594 21.7242 35.9938 21.3294 37.0283 21.3281C38.0627 21.3294 39.0971 21.7242 39.8867 22.5138Z" fill="#F8E7DC"/>
<path d="M32.2296 26.2871L35.0881 29.1455L29.3712 34.8624L26.5128 32.004C24.935 30.4262 24.9363 27.8662 26.5141 26.2884C27.3036 25.4989 28.3381 25.1041 29.3725 25.1028C30.4071 25.1041 31.4401 25.4976 32.2296 26.2871V26.2871Z" fill="#FFEEE3"/>
<path d="M34.1712 28.2289L35.0879 29.1456L29.3711 34.8625L28.4543 33.9457C26.8752 32.3666 26.8766 29.8066 28.4543 28.2289C29.2439 27.4393 30.2783 27.0445 31.3128 27.0432C32.3474 27.0445 33.3819 27.4393 34.1712 28.2289V28.2289Z" fill="#F8E7DC"/>
<path d="M26.5127 32.0042L29.3712 34.8626L23.6556 40.5781L20.7972 37.7197C19.2194 36.1419 19.2194 33.5833 20.7985 32.0042C21.5881 31.2146 22.6212 30.8211 23.6556 30.8198C24.6901 30.8211 25.7232 31.2146 26.5127 32.0042Z" fill="#FFEEE3"/>
<path d="M28.4543 33.9459L29.371 34.8626L23.6555 40.5782L22.7388 39.6614C21.1597 38.0823 21.1597 35.5237 22.7388 33.9446C23.5283 33.155 24.5614 32.7616 25.5959 32.7603C26.6303 32.7616 27.6648 33.1564 28.4543 33.9459V33.9459Z" fill="#F8E7DC"/>
<path d="M46.5202 17.7136L76.3098 47.5033L68.2777 58.5137L55.9036 67.9096C54.7035 66.7095 53.5423 65.4266 52.2141 64.3647C50.6935 63.1475 48.9424 62.187 47.0968 61.5625C44.6506 60.7328 42.4291 59.3519 40.6038 57.5266L23.6555 40.5783L46.5202 17.7136Z" fill="#FFEEE3"/>
<path d="M43.4798 17.7136L66.3443 40.5781L49.396 57.5264C47.5706 59.3517 45.3492 60.7326 42.903 61.5623C39.2741 62.7905 36.7281 65.2775 34.0962 67.9094L23.4047 59.3897L13.6899 47.5031L43.4798 17.7136Z" fill="#FFEEE3"/>
<path d="M49.1964 23.4299L52.0544 20.5718C53.6328 18.9935 53.6328 16.4342 52.0544 14.8559C50.4761 13.2775 47.9169 13.2775 46.3385 14.8559L43.4805 17.7139L49.1964 23.4299Z" fill="#FFEEE3"/>
<path d="M54.9122 29.1457L57.7703 26.2876C59.3486 24.7093 59.3486 22.15 57.7703 20.5717C56.1919 18.9934 53.6327 18.9934 52.0543 20.5717L49.1963 23.4298L54.9122 29.1457Z" fill="#FFEEE3"/>
<path d="M60.628 34.8617L63.4861 32.0037C65.0644 30.4253 65.0644 27.8661 63.4861 26.2878C61.9077 24.7094 59.3485 24.7094 57.7702 26.2878L54.9121 29.1458L60.628 34.8617Z" fill="#FFEEE3"/>
<path d="M69.2013 32.0042C70.7804 33.5833 70.7804 36.1419 69.2026 37.7197L66.3442 40.5781L60.6287 34.8626L63.4871 32.0042C64.2766 31.2146 65.3098 30.8211 66.3442 30.8198C66.6962 30.8211 67.0467 30.8668 67.3894 30.9576C68.0531 31.1344 68.6807 31.4835 69.2013 32.0042V32.0042Z" fill="#FFEEE3"/>
<path d="M69.2034 37.7185L66.3438 40.578L60.6284 34.8627L63.4861 37.7185L66.3438 34.8608C67.4017 33.8029 67.7518 32.3059 67.3903 30.9565C68.0527 31.1344 68.681 31.4827 69.2015 32.0031C70.7798 33.5833 70.7798 36.142 69.2034 37.7185Z" fill="#F8E7DC"/>
<path d="M70.7549 44.8515L65.7928 45.9472L61.0863 46.9858C60.1221 47.1986 59.239 47.6827 58.5407 48.3808L49.3959 57.5256C47.5697 59.3518 45.3498 60.7333 42.9027 61.5623C39.2731 62.7871 36.7264 65.2784 34.095 67.9097L32.3199 67.1262L31.2393 65.052C33.8698 62.4215 36.4164 59.929 40.0451 58.7046C42.4902 57.8738 44.712 56.4923 46.5364 54.6679L54.5954 46.6106C55.6622 45.5439 55.6622 43.8146 54.5956 42.748C52.5432 40.6955 50.4835 38.0326 47.6001 37.1795L40.4938 35.075C36.0733 34.275 36.6705 27.5315 41.2584 27.5315H51.3435C51.4514 27.5315 51.5611 27.5353 51.6709 27.5391C54.6724 27.6337 57.1781 29.2669 59.3015 31.3903L64.5778 36.6647C66.8544 38.9431 69.2558 41.9995 70.7549 44.8515V44.8515Z" fill="#F8E7DC"/>
<path d="M62.2065 31.3898L67.4816 36.665C69.7593 38.9426 72.1599 41.999 73.6588 44.8522L68.6981 45.9481L62.1463 47.3934L54.0275 39.2746C51.4591 36.7063 46.7638 36.0708 43.398 35.074C38.8933 34.2678 39.6666 27.5318 44.1635 27.532H54.2483C54.3554 27.532 54.4652 27.5346 54.5761 27.5386C57.5776 27.6336 60.0827 29.2661 62.2065 31.3898V31.3898Z" fill="#FFEEE3"/>
<path d="M62.2063 31.3899L67.4814 36.6651C69.7591 38.9427 72.1597 41.9991 73.6586 44.8522L76.3096 47.5032L68.2774 58.5136L55.9033 67.9095C54.7033 66.7095 53.542 65.4266 52.2139 64.3647L64.0543 52.5242L66.6391 49.9394C68.3372 48.2413 68.5709 45.5704 67.1958 43.6015C65.2339 40.792 63.0013 37.8269 61.8397 36.6653L56.5645 31.3901C54.4408 29.2663 51.937 27.6352 48.9355 27.5375C48.8806 27.5362 54.2481 27.5322 54.2481 27.5322C54.3552 27.5322 54.465 27.5349 54.5759 27.5388C57.5774 27.6337 60.0825 29.2661 62.2063 31.3899V31.3899Z" fill="#F8E7DC"/>
<path d="M44.9999 5.74053C44.2161 5.74053 43.5806 5.10502 43.5806 4.32115V1.41938C43.5806 0.635502 44.2161 0 44.9999 0C45.784 0 46.4193 0.635502 46.4193 1.41938V4.32115C46.4193 5.10502 45.7838 5.74053 44.9999 5.74053Z" fill="#0473CE"/>
<path d="M38.297 7.11643C37.7501 7.11643 37.2289 6.79849 36.9959 6.26537L35.8332 3.60679C35.519 2.88858 35.8466 2.05172 36.5648 1.73756C37.283 1.42322 38.1199 1.751 38.4341 2.4692L39.5968 5.12779C39.911 5.84599 39.5834 6.68286 38.8652 6.99701C38.6799 7.07801 38.4869 7.11643 38.297 7.11643Z" fill="#0473CE"/>
<path d="M32.7049 11.0622C32.3603 11.0622 32.0147 10.9375 31.7416 10.685L29.611 8.71492C29.0355 8.18256 29.0003 7.28457 29.5325 6.70906C30.0648 6.13336 30.9625 6.09816 31.5383 6.63052L33.6689 8.60062C34.2444 9.13298 34.2796 10.031 33.7475 10.6065C33.4676 10.9091 33.0868 11.0622 32.7049 11.0622V11.0622Z" fill="#0473CE"/>
<path d="M51.7029 7.11621C51.5129 7.11621 51.3201 7.07779 51.135 6.99698C50.4168 6.68283 50.0892 5.84596 50.4031 5.12795L51.5659 2.46936C51.88 1.75116 52.7175 1.42376 53.4351 1.73753C54.1533 2.05169 54.4809 2.88855 54.1669 3.60657L53.0042 6.26515C52.7708 6.79808 52.2497 7.11621 51.7029 7.11621V7.11621Z" fill="#0473CE"/>
<path d="M57.2946 11.0621C56.9125 11.0621 56.5319 10.9088 56.252 10.6064C55.7197 10.0307 55.7551 9.13272 56.3306 8.60055L58.4613 6.63045C59.0368 6.09809 59.9348 6.13348 60.4672 6.70899C60.9996 7.28469 60.9642 8.18268 60.3887 8.71486L58.2579 10.685C57.985 10.9374 57.6394 11.0621 57.2946 11.0621V11.0621Z" fill="#0473CE"/>
<path d="M76.3096 47.5034L86.0999 57.2937L75.5951 69.1137L62.2746 81.119L53.6625 72.507C53.0119 71.8563 53.0119 70.8012 53.6625 70.1504L76.3096 47.5034Z" fill="#DDEAFB"/>
<path d="M86.0992 57.2928L75.5952 69.1134L62.2747 81.1194L59.6233 78.468L83.4497 54.6433L86.0992 57.2928Z" fill="#CBE2FF"/>
<path d="M86.1001 57.2932L89.5119 60.705C90.1626 61.3557 90.1626 62.4107 89.5119 63.0616L68.043 84.5303C67.3924 85.1809 66.3373 85.1809 65.6865 84.5303L62.2747 81.1185L86.1001 57.2932Z" fill="#5E5D5D"/>
<path d="M89.5115 63.063L68.0429 84.5297C67.3919 85.1807 66.3359 85.1807 65.6849 84.5297L63.5142 82.3571C64.1671 82.9892 65.2061 82.9816 65.8495 82.3381L87.3199 60.8696C87.9691 60.2186 87.9691 59.1626 87.3199 58.5134L89.5115 60.7049C90.1627 61.356 90.1627 62.412 89.5115 63.063V63.063Z" fill="#82817F"/>
<path d="M13.6899 47.5034L36.3371 70.1506C36.9878 70.8012 36.9878 71.8563 36.3371 72.5071L27.7249 81.119L15.5713 70.3533L3.89966 57.2937L13.6899 47.5034Z" fill="#DDEAFB"/>
<path d="M36.3375 72.5059L34.8389 74.0055L11.0142 50.1789L13.6902 47.5029L36.337 70.1497C36.9878 70.8004 36.9878 71.8551 36.3375 72.5059V72.5059Z" fill="#CBE2FF"/>
<path d="M27.725 73.1017C28.6084 73.1017 29.3246 72.3855 29.3246 71.5021C29.3246 70.6187 28.6084 69.9026 27.725 69.9026C26.8416 69.9026 26.1255 70.6187 26.1255 71.5021C26.1255 72.3855 26.8416 73.1017 27.725 73.1017Z" fill="#FFF9DF"/>
<path d="M3.89978 57.2932L27.7251 81.1185L24.3133 84.5303C23.6626 85.1809 22.6075 85.1809 21.9567 84.5303L0.487982 63.0614C-0.162661 62.4107 -0.162661 61.3557 0.487982 60.7048L3.89978 57.2932Z" fill="#528FD8"/>
<path d="M1.59741 59.584L3.89221 57.2892L27.7138 81.1108L25.419 83.4056L1.59741 59.584Z" fill="#0473CE"/>
</svg>
