<svg width="78" height="90" viewBox="0 0 78 90" fill="none" xmlns="http://www.w3.org/2000/svg">
<path d="M77.925 85.8817V88.2776C77.925 89.2286 77.1533 90.0002 76.2023 90.0002H1.79761C0.846631 90.0002 0.0749512 89.2286 0.0749512 88.2776V85.8817C0.0749512 80.3569 3.99312 75.6073 9.41948 74.5561L13.4537 73.6666L22.4431 71.6874L31.0388 69.7942H46.7923L51.6808 70.8629L55.483 71.6944L64.4707 73.6579L68.5804 74.5561C74.0068 75.6073 77.925 80.3569 77.925 85.8817V85.8817Z" fill="#0473CE"/>
<path d="M77.925 85.8815V88.2774C77.925 89.2284 77.1533 90.0001 76.2023 90.0001H71.8078C72.7588 90.0001 73.5305 89.2284 73.5305 88.2774V85.8815C73.5305 80.4868 69.6879 74.8917 64.4707 73.6577L68.5805 74.556C74.0068 75.6071 77.925 80.3567 77.925 85.8815V85.8815Z" fill="#0473CE"/>
<path d="M55.4828 71.6942V90.0001H51.6807V70.8628L55.4828 71.6942Z" fill="#0473CE"/>
<path d="M13.4536 83.1465H64.4706V90.0002H13.4536V83.1465Z" fill="white"/>
<path d="M20.3272 42.876C17.7683 42.876 15.6851 40.3593 15.6537 37.23C15.6217 34.0459 17.7235 31.4438 20.3272 31.4438L22.085 37.1599L20.3272 42.876Z" fill="#FFEEE3"/>
<path d="M57.6814 42.876C60.2402 42.876 62.3234 40.3593 62.3549 37.23C62.3869 34.0459 60.2851 31.4438 57.6814 31.4438L55.9236 37.1599L57.6814 42.876Z" fill="#FFEEE3"/>
<path d="M46.6517 69.5127L46.7924 69.7939V70.1068C46.7924 74.4504 43.2592 77.9818 38.9156 77.9818C36.852 77.9818 34.9008 77.1908 33.4225 75.7512C31.8861 74.2553 31.0389 72.2514 31.0389 70.1068V69.7939L31.1813 69.5127C31.5627 68.7568 31.8141 67.9482 31.9301 67.1098C31.9635 66.8637 31.9846 66.6176 31.9951 66.3715C32.0338 65.3695 31.8756 64.3623 31.5293 63.4201L30.4658 60.5391H47.3654L46.3037 63.4201C45.9486 64.3834 45.7922 65.4117 45.8414 66.4348C45.8519 66.6598 45.8713 66.8848 45.9029 67.108C46.0172 67.9465 46.2703 68.7568 46.6517 69.5127V69.5127Z" fill="#FFEEE3"/>
<path d="M46.3037 63.4201C45.9486 64.3834 45.7922 65.4117 45.8414 66.4348C43.8322 67.8059 41.4363 68.5512 38.9947 68.5512H38.9402C36.4564 68.5512 34.0236 67.783 31.9951 66.3715C32.0338 65.3695 31.8756 64.3623 31.5293 63.4201L30.4658 60.5391H47.3654L46.3037 63.4201Z" fill="#FFEEE3"/>
<path d="M58.067 45.4624C58.067 49.9589 54.3808 55.264 47.1105 61.2388C47.1088 61.2405 47.1088 61.2405 47.107 61.2423C46.9576 61.3653 46.8046 61.4884 46.6517 61.6132C44.4931 63.3675 41.7738 64.3325 38.9947 64.3325H38.9402C36.1523 64.3325 33.4294 63.3657 31.2673 61.6062C23.6982 55.4837 19.8591 50.0503 19.8591 45.4624C19.8591 44.9526 19.8785 44.4692 19.9189 44.0245C20.1017 42.1595 20.1562 36.2269 20.0472 30.2222C20.0437 30.1026 20.0894 29.9901 20.172 29.9058C20.2546 29.8214 20.3671 29.7739 20.4849 29.7739H20.4867L54.3035 29.781H57.4886C57.6064 29.781 57.7189 29.8284 57.8015 29.911C57.8841 29.9954 57.9298 30.1097 57.9281 30.2274C57.8367 35.3022 57.8033 41.9556 58.0072 44.0069C58.0459 44.4903 58.067 44.9772 58.067 45.4624Z" fill="#FFEEE3"/>
<path d="M58.0668 45.4624C58.0668 49.9589 54.3807 55.264 47.1104 61.2388C52.0533 55.6419 54.7832 49.5054 54.7832 45.4624C54.7832 44.9773 54.7656 44.4904 54.7322 44.007C54.5652 41.9556 54.5934 35.3023 54.6672 30.2275C54.6689 30.1097 54.632 29.9955 54.5635 29.9111C54.4949 29.8285 54.4018 29.781 54.3033 29.781H57.4885C57.6062 29.781 57.7187 29.8285 57.8014 29.9111C57.884 29.9955 57.9297 30.1097 57.9279 30.2275C57.8365 35.3023 57.8031 41.9556 58.007 44.007C58.0457 44.4904 58.0668 44.9773 58.0668 45.4624V45.4624Z" fill="#FFEEE3"/>
<path d="M22.4431 71.6873V90.0001H13.4536V73.6665L22.4431 71.6873Z" fill="white"/>
<path d="M64.4706 73.6578V90.0002H55.4829V71.6943L60.6685 72.8264L64.4706 73.6578Z" fill="white"/>
<path d="M64.4706 73.6579V90.0002H60.6685V72.8264L64.4706 73.6579Z" fill="white"/>
<path d="M13.4536 83.1465H22.4431V90.0002H13.4536V83.1465Z" fill="white"/>
<path d="M55.4829 83.1465H64.4706V90.0002H55.4829V83.1465Z" fill="white"/>
<path d="M61.0675 20.6315V27.4976C61.0675 28.227 60.4786 28.8159 59.7492 28.8159H18.1716C17.4439 28.8159 16.8533 28.227 16.8533 27.4976V20.6315C16.8533 10.8669 24.7986 2.92334 34.565 2.92334H43.3558C53.1222 2.92334 61.0675 10.8669 61.0675 20.6315Z" fill="#0473CE"/>
<path d="M61.0677 20.6315V27.4976C61.0677 28.227 60.4788 28.8159 59.7493 28.8159H56.3901C56.9702 28.8159 57.4395 28.227 57.4395 27.4976V20.6315C57.4395 10.8669 51.122 2.92334 43.356 2.92334C53.1224 2.92334 61.0677 10.8669 61.0677 20.6315Z" fill="#0473CE"/>
<path d="M61.0675 20.6313V27.4974C61.0675 28.2268 60.4786 28.8157 59.7492 28.8157H18.1716C17.4439 28.8157 16.8533 28.2268 16.8533 27.4974V20.6313H61.0675Z" fill="#0473CE"/>
<path d="M43.3082 1.31836V27.4975C43.3082 28.227 42.7193 28.8158 41.9898 28.8158H36.2031C35.4754 28.8158 34.8848 28.227 34.8848 27.4975V1.31836C34.8848 0.590625 35.4754 0 36.2031 0H41.9898C42.7193 0 43.3082 0.590625 43.3082 1.31836Z" fill="white"/>
<path d="M66.3304 27.4973V29.837C66.3304 32.5071 64.1577 34.6797 61.4858 34.6797H16.514C13.8438 34.6797 11.6694 32.5071 11.6694 29.837V27.4973C11.6694 26.7696 12.2601 26.179 12.9878 26.179H65.012C65.7397 26.179 66.3304 26.7696 66.3304 27.4973Z" fill="white"/>
<path d="M66.3304 27.4973V29.837C66.3304 32.5071 64.1578 34.6797 61.4859 34.6797H57.5115C60.1869 34.6797 62.356 32.5106 62.356 29.837V27.4973C62.356 26.7696 61.7654 26.179 61.0376 26.179H65.0121C65.7398 26.179 66.3304 26.7696 66.3304 27.4973Z" fill="white"/>
</svg>
