<svg width="90" height="90" viewBox="0 0 90 90" fill="none" xmlns="http://www.w3.org/2000/svg">
<g clip-path="url(#clip0_21:176)">
<path d="M45.3882 0.000583651C46.8619 0.000583651 48.3132 0.0962087 49.6632 0.321209C50.9928 0.49543 52.3046 0.785278 53.5838 1.18746C54.8663 1.57558 56.1207 2.05933 57.3751 2.66683C58.5957 3.24621 59.8501 3.95496 61.1044 4.72558C63.2251 6.07558 65.3119 7.16683 67.4382 8.03871C71.624 9.71402 76.0502 10.7109 80.5501 10.9918C82.8338 11.155 85.1794 11.2506 87.6207 11.2506V33.7506C87.6207 38.0256 87.0751 42.0756 85.9838 45.9343C84.9356 49.738 83.4461 53.4061 81.5457 56.8637C79.6533 60.3165 77.4142 63.5676 74.8632 66.5668C72.273 69.6342 69.4685 72.5139 66.4707 75.1843C63.4333 77.8626 60.2341 80.3517 56.8913 82.6375C53.5501 84.955 50.1751 87.1093 46.8001 89.0668L45.4501 89.8712L44.1001 89.0668C40.6306 87.0582 37.2417 84.9134 33.9413 82.6375C30.5798 80.3774 27.379 77.8871 24.3619 75.1843C21.366 72.5138 18.5633 69.6341 15.9751 66.5668C13.4308 63.5549 11.1818 60.3056 9.25882 56.8637C7.39093 53.3907 5.90296 49.7264 4.82069 45.9343C3.72252 41.9672 3.18109 37.8668 3.21194 33.7506V11.2506C5.65882 11.2506 8.00444 11.155 10.2882 10.9918C12.5363 10.8357 14.7698 10.5142 16.9707 10.03C19.1251 9.54621 21.2794 8.90496 23.4001 8.03871C25.6006 7.1506 27.7103 6.0524 29.7001 4.75933C32.1751 3.15058 34.6838 1.96371 37.1588 1.18183C39.8243 0.364699 42.6005 -0.0337936 45.3882 0.000583651Z" fill="#0473CE"/>
<path fill-rule="evenodd" clip-rule="evenodd" d="M66.3584 26.4883L63.8834 24.3621L61.5996 24.5589L37.0746 53.5164L28.7215 41.5914L26.4715 41.2089L23.8671 43.0708L23.479 45.3208L34.2171 60.6546L35.4378 61.3296L38.0084 61.4871L39.3246 60.9133L66.5215 28.7664L66.3584 26.4883V26.4883Z" fill="white"/>
</g>
<defs>
<clipPath id="clip0_21:176">
<rect width="90" height="90" fill="white"/>
</clipPath>
</defs>
</svg>
